<svg xmlns="http://www.w3.org/2000/svg" aria-hidden="true" style="position:absolute;width:0;height:0;overflow:hidden">
  <defs>
    <symbol id="icon-coffee-grinder-grinder-svgrepo-com" viewBox="0 0 32 32">
      <path d="M25.333 0a4 4 0 0 0-3.772 2.667h-8.228C12.597 2.667 12 3.264 12 4v2.667H8c-.736 0-1.333.597-1.333 1.333 0 1.501.496 2.886 1.333 4H4c-.736 0-1.333.597-1.333 1.333v5.333c0 .736.597 1.333 1.333 1.333h1.333v4H4c-.736 0-1.333.597-1.333 1.333v5.333c0 .736.597 1.333 1.333 1.333h18.667c.736 0 1.333-.597 1.333-1.333v-5.333c0-.736-.597-1.333-1.333-1.333h-1.333v-4h1.333c.736 0 1.333-.597 1.333-1.333v-5.333c0-.736-.597-1.333-1.333-1.333h-4A6.636 6.636 0 0 0 20 8c0-.736-.597-1.333-1.333-1.333h-4V5.334h6.895A4 4 0 1 0 25.334.001zm-4 29.333h-16v-2.667h16v2.667zM18.667 24H8v-4h10.667v4zm2.666-6.667h-16v-2.667h16v2.667zm-8-5.333a4.001 4.001 0 0 1-3.772-2.667h7.545A4.001 4.001 0 0 1 13.334 12zm12-6.667a1.332 1.332 0 1 1 0-2.666 1.332 1.332 0 1 1 0 2.666z"/>
    </symbol>
    <symbol id="icon-coffee-machine-svgrepo-com-1" viewBox="0 0 32 32">
      <path d="m30.553 4.76-1.78-.477a10.64 10.64 0 0 0-6.438.268c-1.18.385-1.247.394-2.416.013-2.154-1.015-5.049-.833-7.118.409l-.06.025A1.333 1.333 0 0 0 12 6.193v.474h-1.333V5.334c0-1.422-1.245-2.667-2.667-2.667H2.575A2.575 2.575 0 0 0 0 5.242v5.425c0 .207.048.411.141.596l1.333 2.667c.226.452.688.737 1.193.737H8c.505 0 .967-.285 1.193-.737l1.333-2.667c.093-.185.141-.389.141-.596V9.334H12v1.333c0 .503.284.964.733 1.191l.153.077c2.033 1.153 4.958 1.318 7.094.332 1.107-.388 1.124-.388 2.37.048a11.42 11.42 0 0 0 6.397.268l1.797-.481c.94-.258 1.455-1.082 1.455-1.989V6.75c0-.908-.514-1.733-1.447-1.989zM8 10.352 7.176 12H3.491l-.824-1.648V5.333H8v5.019zm21.333-.687-1.25.335a8.72 8.72 0 0 1-4.864-.207c-1.807-.632-2.451-.632-4.245.006-1.277.584-2.992.568-4.308.035v-2.82c1.351-.572 3.006-.584 4.166-.013l.174.071c1.788.584 2.41.584 4.197 0a8.016 8.016 0 0 1 4.872-.214l1.256.337v2.47zM6.277 17.4a1.332 1.332 0 0 0-1.885 0l-2.829 2.828a5.336 5.336 0 0 0-.001 7.543 5.334 5.334 0 1 0 7.543-7.543L6.277 17.4zm.942 8.485a2.666 2.666 0 1 1-3.772-3.772l1.886-1.885 1.885 1.885a2.666 2.666 0 0 1 0 3.772z"/>
    </symbol>
    <symbol id="icon-coffee-machine-svgrepo-com" viewBox="0 0 32 32">
      <path d="M21.212 16.038c.568 0 1.028-.46 1.028-1.028v-.557h.951a2.685 2.685 0 0 0 2.682-2.682V8.979h2.624c.568 0 1.028-.46 1.028-1.028V3.698A3.702 3.702 0 0 0 25.827 0H6.173a3.702 3.702 0 0 0-3.698 3.698v27.274c0 .568.46 1.028 1.028 1.028h19.843a5.704 5.704 0 0 0 5.697-5.697c0-.568-.46-1.028-1.028-1.028h-5.281a4.43 4.43 0 0 0 3.689-3.361h.778a2.093 2.093 0 0 0 2.091-2.091v-.624a2.093 2.093 0 0 0-2.091-2.091H16.745c-.568 0-1.028.46-1.028 1.028v2.765a4.424 4.424 0 0 0 3.808 4.375h-6.099V8.979h3.126v2.792a2.685 2.685 0 0 0 2.682 2.682h.951v.557c0 .568.46 1.028 1.028 1.028zm-3.44 4.862v-1.737h6.713V20.9a2.366 2.366 0 0 1-2.363 2.363h-1.988a2.366 2.366 0 0 1-2.363-2.363zm9.067 6.431a3.648 3.648 0 0 1-3.494 2.613H4.53V8.978l.033.001h6.806v17.163c0 .027.002.054.004.081-.002.027-.004.053-.004.081 0 .568.46 1.028 1.028 1.028h14.442zM4.564 6.923h-.033V3.698c0-.906.737-1.642 1.642-1.642h19.654c.906 0 1.642.737 1.642 1.642v3.225H4.563zm14.669 5.474a.627.627 0 0 1-.626-.627V8.978h5.211v2.792a.628.628 0 0 1-.627.627h-3.958z"/>
    </symbol>
    <symbol id="icon-coffee-togo-svgrepo-com" viewBox="0 0 32 32">
      <path d="M9.333 29.333h13.333c.67 0 1.224-.494 1.319-1.137l.001-.007 2.503-17.523H28V7.999h-1.843l-2.299-4.596a1.331 1.331 0 0 0-1.191-.737H9.333c-.505 0-.967.285-1.193.737L5.843 7.999H4v2.667h1.511l2.503 17.523c.096.65.65 1.144 1.32 1.144zm13.891-14.666H8.776l-.572-4h15.591l-.571 4zm-12.735 12-.572-4h12.164l-.572 4h-11.02zm-.332-21.334h11.685L23.175 8H8.823l1.333-2.667z"/>
    </symbol>
    <symbol id="icon-play-button" viewBox="0 0 32 32">
    <path d="M6.678 6.625c-0.894 0.005-1.616 0.731-1.616 1.625 0 0.073 0.005 0.145 0.014 0.216l-0.001-0.008c1 7.75 1 7.334 0 15.084-0.008 0.062-0.013 0.134-0.013 0.208 0 0.898 0.728 1.625 1.625 1.625 0.225 0 0.44-0.046 0.635-0.129l-0.011 0.004 18.625-7.75c0.592-0.251 1-0.828 1-1.5s-0.408-1.249-0.99-1.496l-0.011-0.004-18.625-7.75c-0.184-0.079-0.399-0.125-0.624-0.125-0.003 0-0.007 0-0.010 0h0z"></path>
  </symbol>
  <symbol id="icon-reset" viewBox="0 0 32 32">
    <path d="M26.667 6.667v2.667l-4.292-0c2.255 1.979 3.637 4.874 3.634 8.030-0.004 4.886-3.328 9.145-8.066 10.336s-9.681-0.99-11.995-5.293c-2.314-4.304-1.408-9.629 2.199-12.925 0.51 0.811 1.228 1.469 2.080 1.907-1.832 1.48-2.896 3.711-2.893 6.067 0.066 4.371 3.628 7.88 8 7.88 4.004 0.066 7.419-2.887 7.932-6.859 0.383-2.968-0.946-5.796-3.265-7.434l-0 4.96h-2.667v-9.333h9.333zM12.667 4c1.473 0 2.667 1.194 2.667 2.667s-1.194 2.667-2.667 2.667c-1.473 0-2.667-1.194-2.667-2.667s1.194-2.667 2.667-2.667z"></path>
  </symbol>
  </defs>
</svg>
